
<svg version="1.0" xmlns="http://www.w3.org/2000/svg"
 width="1200.000000pt" height="469.000000pt" viewBox="0 0 1200.000000 469.000000"
 preserveAspectRatio="xMidYMid meet">

<g transform="translate(0.000000,469.000000) scale(0.100000,-0.100000)"
fill="#000000" stroke="none">
<path d="M3849 4535 c-121 -44 -226 -153 -409 -426 -108 -161 -198 -282 -360
-484 -53 -66 -157 -205 -230 -310 -238 -339 -282 -396 -323 -426 -22 -16 -52
-29 -68 -29 -36 0 -133 74 -180 137 -20 26 -69 93 -110 148 -81 110 -478 520
-571 590 -31 23 -73 46 -93 49 -46 9 -127 -14 -184 -52 -60 -40 -879 -877
-1029 -1052 -124 -144 -164 -206 -155 -240 8 -28 65 -77 107 -90 22 -7 83 -13
136 -14 92 -1 98 0 134 28 21 15 70 72 109 125 49 67 176 201 425 449 294 291
360 352 382 352 32 0 51 -16 106 -85 21 -27 77 -91 124 -140 49 -53 147 -180
233 -303 153 -220 333 -450 388 -496 87 -74 184 -94 259 -56 52 26 64 40 186
210 57 80 137 189 178 242 41 54 107 153 147 220 120 204 209 335 340 498 68
85 166 214 216 285 186 265 237 309 346 302 47 -3 62 -8 88 -33 43 -41 103
-127 194 -279 128 -214 292 -442 515 -720 53 -66 185 -236 294 -378 109 -141
218 -279 243 -307 101 -112 307 -164 523 -130 146 23 217 55 572 257 189 108
424 241 523 296 99 55 368 207 597 338 599 342 871 479 1152 578 226 80 481
123 956 161 332 27 435 50 480 108 56 70 -17 130 -200 163 -53 10 -163 14
-375 14 -255 0 -326 -4 -475 -23 -345 -46 -574 -99 -874 -202 -200 -69 -334
-131 -726 -335 -379 -197 -1054 -530 -1295 -640 -301 -136 -395 -159 -553
-131 -163 28 -231 78 -370 269 -48 67 -151 208 -227 312 -77 105 -192 276
-256 380 -165 271 -313 506 -379 605 -84 125 -205 232 -301 265 -51 18 -161
18 -210 0z"/>
<path d="M10535 1673 c-253 -35 -371 -162 -405 -436 -18 -140 -8 -670 14 -755
47 -182 139 -278 311 -322 73 -19 111 -20 551 -20 526 0 579 5 685 61 108 58
154 138 169 295 5 55 10 125 10 157 l0 57 -129 0 -128 0 -5 -115 c-5 -123 -13
-146 -69 -187 -46 -34 -125 -39 -557 -36 -456 3 -460 4 -524 65 -60 57 -63 82
-63 478 l0 361 26 49 c33 66 90 101 187 116 47 7 207 9 455 7 l382 -3 49 -25
c78 -39 90 -63 94 -186 l4 -104 124 0 124 0 0 100 c0 211 -56 324 -196 393
-103 52 -164 57 -641 56 -241 -1 -451 -4 -468 -6z"/>
<path d="M137 1663 c-4 -3 -7 -345 -7 -760 l0 -753 673 0 c732 1 774 3 881 56
69 33 127 87 158 146 22 41 23 54 23 238 l0 195 -31 55 c-21 37 -48 66 -81 89
l-50 33 43 43 c62 62 77 123 72 280 -4 113 -6 127 -36 188 -59 119 -147 170
-321 187 -109 11 -1314 14 -1324 3z m1325 -245 c22 -6 50 -25 64 -41 22 -26
24 -37 24 -125 0 -115 -16 -158 -70 -184 -32 -16 -80 -18 -557 -18 l-523 0 0
190 0 190 511 0 c363 0 523 -3 551 -12z m43 -619 c24 -6 54 -22 67 -36 21 -23
23 -34 26 -157 3 -131 3 -133 -23 -164 -48 -57 -51 -57 -635 -57 l-535 0 -3
213 -2 212 530 0 c353 0 546 -4 575 -11z"/>
<path d="M2067 1663 c-4 -3 -7 -345 -7 -760 l0 -753 135 0 135 0 0 285 0 285
498 0 c306 0 514 -4 542 -11 25 -6 56 -20 69 -32 46 -43 51 -71 51 -307 l0
-220 130 0 130 0 0 238 c-1 286 -8 320 -88 391 l-49 44 46 31 c34 23 54 47 76
91 30 60 30 61 30 235 0 194 -10 252 -55 324 -63 98 -167 142 -375 156 -149
11 -1258 13 -1268 3z m1289 -244 c124 -23 144 -54 144 -226 0 -137 -13 -175
-74 -206 -61 -32 -170 -38 -641 -35 l-450 3 -3 238 -2 237 483 0 c307 0 505
-4 543 -11z"/>
<path d="M4587 1378 c-178 -300 -716 -1207 -724 -1220 -2 -5 65 -8 150 -8
l154 0 89 153 90 152 554 0 554 0 90 -152 90 -153 153 0 154 0 -15 28 c-8 15
-210 356 -449 757 l-434 730 -141 3 -141 3 -174 -293z m518 -329 c110 -187
202 -344 203 -349 2 -6 -150 -10 -408 -10 -251 0 -410 4 -408 9 7 20 403 690
408 690 3 0 95 -153 205 -340z"/>
<path d="M6060 910 l0 -761 133 3 132 3 5 563 5 564 294 -566 293 -566 59 0
c32 0 68 4 82 9 18 7 91 135 323 565 l299 556 5 -562 5 -563 133 -3 132 -3 0
761 0 760 -181 -2 -180 -3 -292 -552 c-161 -304 -295 -553 -298 -553 -3 0
-137 249 -297 553 l-291 552 -180 3 -181 2 0 -760z"/>
<path d="M8627 1088 c-190 -321 -393 -663 -451 -761 l-105 -178 156 3 155 3
88 150 88 150 547 3 c365 1 552 -1 560 -8 7 -6 50 -76 96 -155 l84 -145 153 0
c83 0 152 2 152 4 0 6 -879 1488 -892 1504 -8 8 -50 12 -148 12 l-137 0 -346
-582z m701 -58 l199 -335 -203 -3 c-111 -1 -297 -1 -413 0 l-211 3 91 155
c305 515 322 543 330 529 5 -8 98 -165 207 -349z"/>
</g>
</svg>
